<?xml version="1.0" encoding="utf-8"?>

<!DOCTYPE svg PUBLIC "-//W3C//DTD SVG 1.1//EN" "http://www.w3.org/Graphics/SVG/1.1/DTD/svg11.dtd">
<!-- Uploaded to: SVG Repo, www.svgrepo.com, Generator: SVG Repo Mixer Tools -->
<svg height="800px" width="800px" version="1.1" id="_x32_" xmlns="http://www.w3.org/2000/svg" xmlns:xlink="http://www.w3.org/1999/xlink" 
	 viewBox="0 0 512 512"  xml:space="preserve">
<style type="text/css">
	.st0{fill:#000000;}
</style>
<g>
	<path class="st0" d="M256,0C114.616,0,0,114.634,0,256.009S114.616,512,256,512c141.383,0,256-114.616,256-255.991S397.383,0,256,0
		z M336.83,291.277c13.956-0.902,23.303-12.697,29.527-15.518c6.224-2.83,10.884,1.41,10.884,8.464
		c0,7.063,1.821,55.098,1.821,55.098c0.25,7.553-7.142,16.375-19.357,14.071l-56.152-6.642c-11.365-1.616-13.624-1.902-18.187,3.116
		c-5.313,5.857,9.295,12.804,9.295,29.197c0,19.356-17.313,35.071-38.661,35.071c-21.339,0-38.652-15.715-38.652-35.071
		c0-16.393,14.608-23.34,9.286-29.197c-4.554-5.018-6.813-4.732-18.188-3.116l-56.152,6.642
		c-12.214,2.304-19.607-6.518-19.357-14.071c0,0,1.821-48.036,1.821-55.098c0-7.054,4.661-11.294,10.885-8.464
		c6.222,2.821,15.58,14.616,29.527,15.518c21.767,1.42,40.42-15.518,40.42-35.268c0-19.75-18.652-36.688-40.42-35.277
		c-13.947,0.902-23.304,12.688-29.527,15.526c-6.224,2.822-10.885-1.428-10.885-8.482c0-7.044-1.821-55.098-1.821-55.098
		c-0.25-7.536,7.143-16.375,19.357-14.063l56.152,6.652c11.366,1.616,13.624,1.902,18.188-3.117
		c5.321-5.857-9.286-12.821-9.286-29.196c0-19.376,17.313-35.09,38.652-35.09c21.348,0,38.661,15.714,38.661,35.09
		c0,16.375-14.608,23.339-9.295,29.196c4.553,5.019,6.812,4.732,18.187,3.117l56.152-6.652c12.215-2.312,19.608,6.527,19.357,14.063
		c0,0-1.821,48.054-1.821,55.098c0,7.054-4.66,11.304-10.884,8.482c-6.224-2.839-15.571-14.625-29.527-15.526
		c-21.768-1.411-40.42,15.526-40.42,35.277C296.41,275.759,315.062,292.697,336.83,291.277z"/>
</g>
</svg>